<svg width="27" height="28" viewBox="0 0 27 28" fill="none" xmlns="http://www.w3.org/2000/svg">
<path fill-rule="evenodd" clip-rule="evenodd" d="M21.8874 13.9603C21.4342 14.787 20.5545 15.3337 19.5549 15.3337H9.62526L8.15914 18.0003H24.1532V20.667H8.15914C6.13322 20.667 4.8537 18.4937 5.82667 16.707L7.626 13.4537L2.82779 3.33366H0.162109V0.666992H4.52049L5.77336 3.33366H25.4994C26.5123 3.33366 27.1521 4.42699 26.6589 5.30699L21.8874 13.9603ZM23.2336 6.00033H7.0396L10.1984 12.667H19.555L23.2336 6.00033ZM8.15915 22.0003C6.69303 22.0003 5.5068 23.2003 5.5068 24.667C5.5068 26.1337 6.69303 27.3337 8.15915 27.3337C9.62527 27.3337 10.8248 26.1337 10.8248 24.667C10.8248 23.2003 9.62527 22.0003 8.15915 22.0003ZM18.8352 24.667C18.8352 23.2003 20.0214 22.0003 21.4875 22.0003C22.9537 22.0003 24.1532 23.2003 24.1532 24.667C24.1532 26.1337 22.9537 27.3337 21.4875 27.3337C20.0214 27.3337 18.8352 26.1337 18.8352 24.667Z" fill="#D2232A"/>
</svg>
