<svg width="30" height="22" viewBox="0 0 30 22" fill="none" xmlns="http://www.w3.org/2000/svg">
<path fill-rule="evenodd" clip-rule="evenodd" d="M25.6673 5.66634H21.6673V0.333008H3.00065C1.53398 0.333008 0.333984 1.53301 0.333984 2.99967V17.6663H3.00065C3.00065 19.8797 4.78732 21.6663 7.00065 21.6663C9.21398 21.6663 11.0007 19.8797 11.0007 17.6663H19.0007C19.0007 19.8797 20.7873 21.6663 23.0007 21.6663C25.214 21.6663 27.0006 19.8797 27.0006 17.6663H29.6673V10.9997L25.6673 5.66634ZM25.0007 7.66634L27.614 10.9997H21.6673V7.66634H25.0007ZM5.66732 17.6663C5.66732 18.3997 6.26732 18.9997 7.00065 18.9997C7.73398 18.9997 8.33398 18.3997 8.33398 17.6663C8.33398 16.933 7.73398 16.333 7.00065 16.333C6.26732 16.333 5.66732 16.933 5.66732 17.6663ZM9.96065 14.9997C9.22732 14.1863 8.18732 13.6663 7.00065 13.6663C5.81398 13.6663 4.77398 14.1863 4.04065 14.9997H3.00065V2.99967H19.0007V14.9997H9.96065ZM21.6673 17.6663C21.6673 18.3997 22.2673 18.9997 23.0007 18.9997C23.734 18.9997 24.334 18.3997 24.334 17.6663C24.334 16.933 23.734 16.333 23.0007 16.333C22.2673 16.333 21.6673 16.933 21.6673 17.6663Z" fill="#D2232A"/>
</svg>
