<svg width="201" height="60" viewBox="0 0 201 60" fill="none" xmlns="http://www.w3.org/2000/svg">
<g clip-path="url(#clip0_21439_78751)">
<g clip-path="url(#clip1_21439_78751)">
<path d="M146.383 39.8092C145.188 39.8092 143.882 38.8778 143.664 36.8499C141.759 40.1919 139.094 44.6279 134.524 44.6279C132.129 44.6279 130.171 42.4926 130.933 38.4387C130.224 39.8092 128.809 41.5603 127.613 42.7647C126.469 43.9154 124.783 44.7365 123.259 44.5719C117.275 43.9154 122.607 33.456 124.51 30.1151C126.089 27.4323 127.558 27.1048 129.952 27.1048C127.613 27.8713 120.322 42.3826 124.13 43.4772C125.001 43.751 126.579 42.9299 127.613 41.7246C130.822 38.1644 132.401 33.6758 134.85 29.4593C136.428 26.7758 137.897 26.4468 140.29 26.4468C138.712 26.9389 133.653 35.7553 133.108 40.0827C132.728 43.2037 134.794 43.5879 135.83 43.4772C139.474 43.1492 142.467 37.563 143.61 34.6597C143.338 33.6197 143.121 28.6921 144.099 26.2831C144.752 24.6951 146.929 24.0378 146.929 26.8304C146.929 28.8568 146.059 31.3759 145.731 32.197C145.46 32.9087 145.025 34.0041 144.427 35.264C144.371 37.5087 145.296 39.0966 146.547 39.0966C148.616 39.0966 149.921 36.7968 150.682 35.264C150.901 34.7707 151.608 34.7158 151.173 35.7013C150.303 37.6731 148.724 39.8092 146.383 39.8092Z" fill="#D2232A"/>
<path d="M159.606 23.1622C158.574 23.1622 157.92 22.285 158.083 21.245C158.246 20.2035 159.281 19.3826 160.314 19.3826C161.349 19.3826 162.001 20.2035 161.837 21.245C161.622 22.285 160.641 23.1622 159.606 23.1622ZM156.288 42.7645C155.145 43.9152 153.458 44.8461 151.935 44.5717C145.623 43.477 151.717 32.7987 153.622 29.4591C155.199 26.7756 156.668 26.4467 159.063 26.4467C156.724 27.2132 148.997 42.3824 152.805 43.477C153.677 43.7508 155.255 42.8746 156.288 41.7245C157.92 39.9182 159.227 37.7266 160.641 35.2084C160.968 34.6596 161.349 35.1523 161.022 35.7551C159.716 38.1642 158.355 40.6845 156.288 42.7645Z" fill="#D2232A"/>
<path d="M161.294 35.7544C162.654 35.7004 163.144 36.8491 162.925 37.2341C162.164 36.9588 161.403 37.2341 160.804 37.726C159.824 38.4925 159.116 40.0252 159.116 41.3403C159.062 44.1338 162.001 44.4613 163.851 43.2575C165.32 42.2711 166.082 40.5755 166.517 38.7123C167.334 35.3163 167.007 31.1552 167.117 29.5124C167.17 28.1434 167.66 26.7198 168.042 26.3914C165.918 27.2125 162.381 33.2908 161.294 35.7544ZM170.87 42.4918C169.456 43.8048 167.606 44.2976 166.626 44.1899C166.028 44.1338 165.701 43.9692 165.428 43.7502C164.613 44.1899 163.635 44.4613 162.6 44.6271C160.75 44.8454 159.009 44.4081 158.137 42.601C157.54 41.2872 157.648 39.4239 158.137 38.2187C158.683 36.9588 159.444 35.9197 160.314 35.7544C161.24 33.5652 164.177 28.5275 166.517 26.3363C167.007 25.7895 169.13 23.7634 170.706 23.489C172.83 23.1046 173.047 25.4615 171.086 26.117C170.706 26.1725 170.109 26.3914 168.803 26.3914C167.551 28.198 169.781 32.9624 169.836 35.2077C169.946 37.9452 168.965 40.903 166.897 42.7639L166.137 43.3121C167.387 43.6957 169.456 42.8199 170.87 41.3963C172.612 39.753 173.809 37.782 174.897 35.7544C175.17 35.2632 175.657 35.7544 175.277 36.4675C174.188 38.4925 172.503 40.9561 170.87 42.4918Z" fill="#D2232A"/>
<path d="M194.485 6.78711C189.206 11.771 184.254 20.5885 181.154 27.1586C185.506 23.9299 188.718 20.8062 192.31 16.9727C193.832 15.3853 197.259 11.7173 198.512 8.75857C200.361 4.21577 196.88 4.48776 194.485 6.78711ZM191.927 18.6707C187.467 22.9976 183.113 26.392 180.665 28.2547C179.194 31.3757 178.216 33.8394 177.943 34.8242C179.086 33.0731 180.773 30.7178 181.916 29.513C183.548 27.8157 185.289 26.5573 186.868 26.392C190.512 26.0639 191.002 28.3084 189.696 31.3757C188.718 33.6196 187.304 35.9758 186.215 38.0556C185.887 38.6575 184.908 40.6292 184.69 42.0535C184.527 43.149 185.071 43.6417 185.724 43.6417C186.922 43.6417 188.065 42.6562 188.88 41.7244C190.512 39.9182 191.817 37.7266 193.234 35.2084C193.561 34.6596 193.995 35.1523 193.67 35.7551C192.363 38.1642 190.948 40.6844 188.88 42.7645C187.737 43.9152 186.106 45.0098 184.091 44.462C181.644 43.8054 181.534 41.0134 182.242 39.0965C183.439 35.8642 186.052 33.0731 187.52 29.9512C188.391 28.1986 187.52 27.2132 186.595 27.3229C185.181 27.4321 183.548 28.7459 182.079 30.4988C180.665 32.0868 179.194 34.2783 177.889 36.5783C176.637 38.7129 175.169 41.2311 174.407 42.8206C173.536 44.7363 172.449 44.2436 171.74 44.2436C172.395 41.7794 174.299 37.3439 176.746 31.3757C180.12 23.2705 186.975 7.72 196.443 4.70756C197.316 4.5438 198.348 4.37952 199.164 4.92592C199.926 5.41862 200.252 6.78711 199.437 8.81552C198.293 11.7173 195.463 15.1664 191.927 18.6707Z" fill="#D2232A"/>
<path d="M49.7575 11.8258C57.2264 11.8258 56.4168 3.77684 48.6207 3.77684C44.6156 3.77684 40.4469 4.87146 38.4439 8.32146C42.4511 10.2915 46.2394 11.8258 49.7575 11.8258ZM36.2245 8.43121C29.8376 5.47337 22.7478 1.96967 14.8988 1.96967C8.61927 1.96967 2.12356 5.74869 2.12356 12.8667C2.12356 18.1781 5.91372 23.4359 12.3004 23.4359C12.7343 23.4359 12.7343 24.0923 12.3004 24.0923C5.26395 24.0923 0.5 17.7939 0.5 11.662C0.5 3.66619 7.86101 -0.00179291 14.7365 -0.00179291C22.9096 -0.00179291 30.2716 4.15979 36.9288 7.55345C39.8525 4.04974 44.5071 3.11889 48.7291 3.11889C58.6341 3.11889 59.9328 12.4831 49.3256 12.4831C45.7515 12.4831 42.0174 11.0586 37.9568 9.25292C34.764 16.5908 43.6409 24.8043 43.6409 33.8395C43.6409 45.449 33.2489 53.7168 20.4744 53.7168C11.3802 53.7168 6.7796 48.6246 6.7796 42.3259C6.7796 25.954 33.9503 16.152 33.9503 30.5542C33.9503 35.4838 29.9469 40.301 26.0492 42.7647C21.611 45.6127 16.4682 46.2161 13.6536 45.1206C13.2739 45.0099 13.4917 44.6279 13.8703 44.7364C16.7394 45.2292 21.5019 44.2437 25.5067 41.6157C28.9714 39.3156 32.8692 35.0442 32.8692 30.5542C32.8692 17.3018 8.94389 27.8713 8.94389 42.6563C8.94389 48.0233 12.4637 52.5124 20.2032 52.5124C31.6239 52.5124 39.2022 43.9699 39.2022 34.2785C39.2022 25.7903 31.3541 15.8782 36.2245 8.43121Z" fill="#55C5CE"/>
<path d="M63.8305 42.7645C62.6945 43.9152 61.0153 44.8461 59.5011 44.5717C56.6313 44.0783 56.3071 41.6156 57.011 38.7129C56.1452 40.1366 55.1702 41.5602 53.9809 42.7645C52.8421 43.9152 51.164 44.7363 49.6495 44.5717C43.6957 43.9152 48.9997 33.4558 50.8933 30.115C52.4638 27.4321 53.9255 27.1046 56.3071 27.1046C53.9809 27.8711 46.7272 42.3824 50.5156 43.477C51.3818 43.7508 52.9509 42.9297 53.9809 41.7245C57.1729 38.1642 58.7434 33.6756 61.1771 29.4591C62.7476 26.7756 64.2096 26.4467 66.5915 26.4467C64.2645 27.2132 56.578 42.3824 60.3658 43.477C61.2325 43.7508 62.803 42.8746 63.8305 41.7245C65.454 39.9182 66.7548 37.7266 68.1614 35.2084C68.486 34.6596 68.8651 35.1523 68.5405 35.7551C67.2406 38.1642 65.888 40.6845 63.8305 42.7645Z" fill="#55C5CE"/>
<path d="M74.1129 30.4439C71.6238 33.1822 69.9463 36.5221 69.295 38.8775C68.8619 40.5206 68.8089 42.9296 70.1627 42.9296C72.977 42.9296 77.0371 35.755 78.3891 33.6195C79.4717 31.9229 80.6095 30.1149 82.2326 27.8156C79.4717 26.392 76.3323 27.9247 74.1129 30.4439ZM64.0441 53.2784C60.7981 55.7975 61.393 59.4133 65.7239 58.0443C69.5123 56.8391 71.732 52.5122 73.3025 48.5695C71.0292 49.7747 67.1319 50.8688 64.0441 53.2784ZM77.0908 45.8314C81.0426 43.8053 84.344 40.1365 86.5614 36.03C86.9952 35.2083 87.9703 34.7704 87.2677 36.03C85.9671 38.3845 84.5053 40.6291 82.6664 42.5455C81.0426 44.2981 79.0924 45.7763 76.7115 46.8709C74.0598 53.061 71.3526 57.9883 66.0479 59.1935C60.3111 60.508 59.5542 55.4155 63.6681 52.5682C67.022 50.2675 68.9174 49.8302 73.7881 47.5295C75.467 44.0782 77.1446 38.493 78.5534 35.3168C78.2824 35.5912 77.1446 37.2347 76.7115 37.8911C75.6282 39.3694 73.9511 41.7793 72.1642 43.2034C67.8354 46.7632 65.2908 42.9845 66.5346 38.1641C67.6181 34.0585 69.8378 30.664 73.2477 28.1439C75.5215 26.4466 79.9055 25.7901 82.5022 27.3783L82.6664 27.2131C84.344 24.75 85.8051 22.9975 88.1323 22.4496C83.1525 27.8156 79.2559 40.3553 77.0908 45.8314Z" fill="#55C5CE"/>
<path d="M99.4442 27.1584C97.2268 27.1584 95.0609 28.5279 93.3296 30.4437C90.8941 33.2366 88.9985 36.5219 88.4572 38.8773C88.0242 40.6842 88.1325 42.9295 89.5398 42.9295C92.3015 42.9295 96.3593 35.7548 97.7666 33.6193C99.2829 31.2096 100.15 29.6226 102.909 28.7457C103.017 28.7457 103.127 28.6917 103.289 28.6917C102.64 27.6517 100.906 27.1584 99.4442 27.1584ZM101.989 42.7643C101.34 43.4222 100.528 44.025 99.607 44.354C98.9044 44.6275 98.0391 44.736 97.1178 44.4617C95.0609 43.8052 94.9534 41.1769 95.3849 39.1508C95.3849 39.0411 95.3849 38.8773 95.4409 38.7673C94.4114 40.1914 92.9503 42.0532 91.4892 43.2033C87.1589 46.763 84.6145 42.9844 85.8591 38.1639C86.8886 34.1135 89.2151 30.7175 92.6248 28.1438C94.1404 27.0498 96.469 26.2827 98.7432 26.2827C101.232 26.2827 103.343 27.1044 104.047 28.4734C102.531 30.4437 100.799 33.7294 99.6622 36.0298C98.9044 37.6171 97.7666 40.1363 97.6606 41.8342C97.6046 42.656 97.8218 43.696 98.9582 43.696C100.095 43.696 101.232 42.6014 101.989 41.7242C103.613 39.9179 104.913 37.7264 106.32 35.2081C106.644 34.6593 107.079 35.1521 106.753 35.7548C105.509 38.1639 104.047 40.6842 101.989 42.7643Z" fill="#55C5CE"/>
<path d="M116.496 43.2576C112.491 46.6536 108.646 43.8586 110.325 38.9854C111.245 36.3571 113.411 34.0034 115.142 31.5384C116.062 30.2242 116.604 28.3079 114.602 28.0344C113.087 27.8152 110.758 28.0344 109.946 27.8706C109.459 30.6081 107.456 34.6591 105.833 37.398C105.291 38.2749 105.182 37.2889 105.453 36.7961C106.97 33.8389 108.538 30.9911 109.081 27.8706C108.322 27.4316 107.674 26.4462 107.403 25.4055C106.753 22.7227 108.919 20.5319 109.892 23.5444C110.271 24.6399 110.108 26.2278 110.001 26.8843C111.192 27.3224 114.71 27.0495 116.604 26.9383C120.015 26.72 118.392 30.2797 117.47 31.8682C116.496 33.6191 115.738 34.8237 114.764 36.3571C110.976 42.2713 112.491 45.831 116.496 42.2176C118.499 40.4098 120.284 36.9589 121.26 35.1518C121.584 34.6054 121.854 35.4262 121.53 36.0296C120.284 38.3289 118.823 41.2873 116.496 43.2576Z" fill="#55C5CE"/>
</g>
</g>
<defs>
<clipPath id="clip0_21439_78751">
<rect width="200" height="60" fill="white" transform="translate(0.5)"/>
</clipPath>
<clipPath id="clip1_21439_78751">
<rect width="200" height="60" fill="white" transform="translate(0.5)"/>
</clipPath>
</defs>
</svg>
